<svg width="210" height="61" viewBox="0 0 210 61" fill="none" xmlns="http://www.w3.org/2000/svg">
<rect width="210" height="61" fill="#1E1E1E"/>
<rect width="210" height="61" fill="white"/>
<path d="M32.4318 21.1818C32.2614 19.7424 31.5701 18.625 30.358 17.8295C29.1458 17.0341 27.6591 16.6364 25.8977 16.6364C24.6098 16.6364 23.483 16.8447 22.517 17.2614C21.5606 17.678 20.8125 18.2509 20.2727 18.9801C19.7424 19.7093 19.4773 20.5379 19.4773 21.4659C19.4773 22.2424 19.6619 22.91 20.0312 23.4688C20.41 24.018 20.893 24.4773 21.4801 24.8466C22.0672 25.2064 22.6828 25.5047 23.3267 25.7415C23.9706 25.9687 24.5625 26.1534 25.1023 26.2955L28.0568 27.0909C28.8144 27.2898 29.6572 27.5644 30.5852 27.9148C31.5227 28.2652 32.4176 28.7434 33.2699 29.3494C34.1316 29.946 34.8419 30.7131 35.4006 31.6506C35.9593 32.5881 36.2386 33.7386 36.2386 35.1023C36.2386 36.6742 35.8267 38.0947 35.0028 39.3636C34.1884 40.6326 32.9953 41.6411 31.4233 42.3892C29.8608 43.1373 27.9621 43.5114 25.7273 43.5114C23.6439 43.5114 21.84 43.1752 20.3153 42.5028C18.8002 41.8305 17.607 40.893 16.7358 39.6903C15.8741 38.4877 15.3864 37.0909 15.2727 35.5H18.9091C19.0038 36.5985 19.3731 37.5076 20.017 38.2273C20.6705 38.9375 21.4943 39.4678 22.4886 39.8182C23.4924 40.1591 24.572 40.3295 25.7273 40.3295C27.072 40.3295 28.2794 40.1117 29.3494 39.6761C30.4195 39.2311 31.267 38.6155 31.892 37.8295C32.517 37.0341 32.8295 36.1061 32.8295 35.0455C32.8295 34.0795 32.5597 33.2936 32.0199 32.6875C31.4801 32.0814 30.7699 31.589 29.8892 31.2102C29.0085 30.8314 28.0568 30.5 27.0341 30.2159L23.4545 29.1932C21.1818 28.5398 19.3826 27.607 18.0568 26.3949C16.7311 25.1828 16.0682 23.5966 16.0682 21.6364C16.0682 20.0076 16.5085 18.5871 17.3892 17.375C18.2794 16.1534 19.4725 15.2064 20.9688 14.5341C22.4744 13.8523 24.1553 13.5114 26.0114 13.5114C27.8864 13.5114 29.553 13.8475 31.0114 14.5199C32.4697 15.1828 33.625 16.0919 34.4773 17.2472C35.339 18.4025 35.7936 19.714 35.8409 21.1818H32.4318ZM61.1214 13.9091H64.6442V33.1705C64.6442 35.1591 64.1754 36.9347 63.2379 38.4972C62.3099 40.0502 60.9983 41.2765 59.3033 42.1761C57.6082 43.0663 55.6196 43.5114 53.3374 43.5114C51.0552 43.5114 49.0665 43.0663 47.3714 42.1761C45.6764 41.2765 44.3601 40.0502 43.4226 38.4972C42.4946 36.9347 42.0305 35.1591 42.0305 33.1705V13.9091H45.5533V32.8864C45.5533 34.3068 45.8658 35.571 46.4908 36.679C47.1158 37.7775 48.0059 38.6439 49.1612 39.2784C50.326 39.9034 51.718 40.2159 53.3374 40.2159C54.9567 40.2159 56.3487 39.9034 57.5135 39.2784C58.6783 38.6439 59.5684 37.7775 60.1839 36.679C60.8089 35.571 61.1214 34.3068 61.1214 32.8864V13.9091ZM95.0881 23H91.5653C91.357 21.9867 90.9924 21.0966 90.4716 20.3295C89.9602 19.5625 89.3352 18.9186 88.5966 18.3977C87.8674 17.8674 87.0578 17.4697 86.1676 17.2045C85.2775 16.9394 84.3494 16.8068 83.3835 16.8068C81.6222 16.8068 80.0265 17.2519 78.5966 18.142C77.1761 19.0322 76.0445 20.3438 75.2017 22.0767C74.3684 23.8097 73.9517 25.9356 73.9517 28.4545C73.9517 30.9735 74.3684 33.0994 75.2017 34.8324C76.0445 36.5653 77.1761 37.8769 78.5966 38.767C80.0265 39.6572 81.6222 40.1023 83.3835 40.1023C84.3494 40.1023 85.2775 39.9697 86.1676 39.7045C87.0578 39.4394 87.8674 39.0464 88.5966 38.5256C89.3352 37.9953 89.9602 37.3466 90.4716 36.5795C90.9924 35.803 91.357 34.9129 91.5653 33.9091H95.0881C94.8229 35.3958 94.34 36.7263 93.6392 37.9006C92.9384 39.0748 92.0672 40.0739 91.0256 40.8977C89.9839 41.7121 88.8144 42.3324 87.517 42.7585C86.2292 43.1847 84.8513 43.3977 83.3835 43.3977C80.9025 43.3977 78.696 42.7917 76.7642 41.5795C74.8324 40.3674 73.3125 38.6439 72.2045 36.4091C71.0966 34.1742 70.5426 31.5227 70.5426 28.4545C70.5426 25.3864 71.0966 22.7348 72.2045 20.5C73.3125 18.2652 74.8324 16.5417 76.7642 15.3295C78.696 14.1174 80.9025 13.5114 83.3835 13.5114C84.8513 13.5114 86.2292 13.7244 87.517 14.1506C88.8144 14.5767 89.9839 15.2017 91.0256 16.0256C92.0672 16.84 92.9384 17.8343 93.6392 19.0085C94.34 20.1733 94.8229 21.5038 95.0881 23ZM124.19 23H120.667C120.459 21.9867 120.094 21.0966 119.573 20.3295C119.062 19.5625 118.437 18.9186 117.698 18.3977C116.969 17.8674 116.159 17.4697 115.269 17.2045C114.379 16.9394 113.451 16.8068 112.485 16.8068C110.724 16.8068 109.128 17.2519 107.698 18.142C106.278 19.0322 105.146 20.3438 104.303 22.0767C103.47 23.8097 103.053 25.9356 103.053 28.4545C103.053 30.9735 103.47 33.0994 104.303 34.8324C105.146 36.5653 106.278 37.8769 107.698 38.767C109.128 39.6572 110.724 40.1023 112.485 40.1023C113.451 40.1023 114.379 39.9697 115.269 39.7045C116.159 39.4394 116.969 39.0464 117.698 38.5256C118.437 37.9953 119.062 37.3466 119.573 36.5795C120.094 35.803 120.459 34.9129 120.667 33.9091H124.19C123.924 35.3958 123.442 36.7263 122.741 37.9006C122.04 39.0748 121.169 40.0739 120.127 40.8977C119.085 41.7121 117.916 42.3324 116.619 42.7585C115.331 43.1847 113.953 43.3977 112.485 43.3977C110.004 43.3977 107.798 42.7917 105.866 41.5795C103.934 40.3674 102.414 38.6439 101.306 36.4091C100.198 34.1742 99.6442 31.5227 99.6442 28.4545C99.6442 25.3864 100.198 22.7348 101.306 20.5C102.414 18.2652 103.934 16.5417 105.866 15.3295C107.798 14.1174 110.004 13.5114 112.485 13.5114C113.953 13.5114 115.331 13.7244 116.619 14.1506C117.916 14.5767 119.085 15.2017 120.127 16.0256C121.169 16.84 122.04 17.8343 122.741 19.0085C123.442 20.1733 123.924 21.5038 124.19 23ZM129.882 43V13.9091H147.439V17.0341H133.405V26.8636H146.53V29.9886H133.405V39.875H147.666V43H129.882ZM169.697 21.1818C169.527 19.7424 168.836 18.625 167.624 17.8295C166.411 17.0341 164.925 16.6364 163.163 16.6364C161.875 16.6364 160.749 16.8447 159.783 17.2614C158.826 17.678 158.078 18.2509 157.538 18.9801C157.008 19.7093 156.743 20.5379 156.743 21.4659C156.743 22.2424 156.928 22.91 157.297 23.4688C157.676 24.018 158.159 24.4773 158.746 24.8466C159.333 25.2064 159.948 25.5047 160.592 25.7415C161.236 25.9687 161.828 26.1534 162.368 26.2955L165.322 27.0909C166.08 27.2898 166.923 27.5644 167.851 27.9148C168.788 28.2652 169.683 28.7434 170.536 29.3494C171.397 29.946 172.107 30.7131 172.666 31.6506C173.225 32.5881 173.504 33.7386 173.504 35.1023C173.504 36.6742 173.092 38.0947 172.268 39.3636C171.454 40.6326 170.261 41.6411 168.689 42.3892C167.126 43.1373 165.228 43.5114 162.993 43.5114C160.91 43.5114 159.106 43.1752 157.581 42.5028C156.066 41.8305 154.873 40.893 154.001 39.6903C153.14 38.4877 152.652 37.0909 152.538 35.5H156.175C156.269 36.5985 156.639 37.5076 157.283 38.2273C157.936 38.9375 158.76 39.4678 159.754 39.8182C160.758 40.1591 161.838 40.3295 162.993 40.3295C164.338 40.3295 165.545 40.1117 166.615 39.6761C167.685 39.2311 168.533 38.6155 169.158 37.8295C169.783 37.0341 170.095 36.1061 170.095 35.0455C170.095 34.0795 169.825 33.2936 169.286 32.6875C168.746 32.0814 168.036 31.589 167.155 31.2102C166.274 30.8314 165.322 30.5 164.3 30.2159L160.72 29.1932C158.447 28.5398 156.648 27.607 155.322 26.3949C153.997 25.1828 153.334 23.5966 153.334 21.6364C153.334 20.0076 153.774 18.5871 154.655 17.375C155.545 16.1534 156.738 15.2064 158.234 14.5341C159.74 13.8523 161.421 13.5114 163.277 13.5114C165.152 13.5114 166.819 13.8475 168.277 14.5199C169.735 15.1828 170.891 16.0919 171.743 17.2472C172.605 18.4025 173.059 19.714 173.107 21.1818H169.697ZM195.205 21.1818C195.035 19.7424 194.344 18.625 193.131 17.8295C191.919 17.0341 190.433 16.6364 188.671 16.6364C187.383 16.6364 186.256 16.8447 185.29 17.2614C184.334 17.678 183.586 18.2509 183.046 18.9801C182.516 19.7093 182.251 20.5379 182.251 21.4659C182.251 22.2424 182.435 22.91 182.805 23.4688C183.183 24.018 183.666 24.4773 184.254 24.8466C184.841 25.2064 185.456 25.5047 186.1 25.7415C186.744 25.9687 187.336 26.1534 187.876 26.2955L190.83 27.0909C191.588 27.2898 192.431 27.5644 193.359 27.9148C194.296 28.2652 195.191 28.7434 196.043 29.3494C196.905 29.946 197.615 30.7131 198.174 31.6506C198.733 32.5881 199.012 33.7386 199.012 35.1023C199.012 36.6742 198.6 38.0947 197.776 39.3636C196.962 40.6326 195.769 41.6411 194.197 42.3892C192.634 43.1373 190.736 43.5114 188.501 43.5114C186.417 43.5114 184.613 43.1752 183.089 42.5028C181.574 41.8305 180.38 40.893 179.509 39.6903C178.647 38.4877 178.16 37.0909 178.046 35.5H181.683C181.777 36.5985 182.147 37.5076 182.79 38.2273C183.444 38.9375 184.268 39.4678 185.262 39.8182C186.266 40.1591 187.345 40.3295 188.501 40.3295C189.845 40.3295 191.053 40.1117 192.123 39.6761C193.193 39.2311 194.04 38.6155 194.665 37.8295C195.29 37.0341 195.603 36.1061 195.603 35.0455C195.603 34.0795 195.333 33.2936 194.793 32.6875C194.254 32.0814 193.543 31.589 192.663 31.2102C191.782 30.8314 190.83 30.5 189.808 30.2159L186.228 29.1932C183.955 28.5398 182.156 27.607 180.83 26.3949C179.504 25.1828 178.842 23.5966 178.842 21.6364C178.842 20.0076 179.282 18.5871 180.163 17.375C181.053 16.1534 182.246 15.2064 183.742 14.5341C185.248 13.8523 186.929 13.5114 188.785 13.5114C190.66 13.5114 192.326 13.8475 193.785 14.5199C195.243 15.1828 196.398 16.0919 197.251 17.2472C198.112 18.4025 198.567 19.714 198.614 21.1818H195.205Z" fill="black"/>
<path d="M179.5 52.5H205.5V6.5H5.5V52.5H80" stroke="black" stroke-width="3"/>
<path d="M88.671 56.987H87.384V49.954L88.19 49.161H87.137L85.408 52.502H84.472L82.808 49.161H81.768L82.574 49.954V56.987H81.287V48.017H83.588L84.927 50.968H85.083L86.448 48.017H88.671V56.987ZM96.7651 57H95.4911V53.633H92.4361V57H91.1491V49.148L92.2801 48.017H96.7651V57ZM96.2971 49.148H92.4361V53.477L93.4111 52.502H95.4911V49.954L96.2971 49.148ZM104.956 57H103.669L103.695 56.09L101.121 53.503L101.992 52.502H103.669V49.148H100.627V57H99.3397V50.253L100.471 49.148H99.1837V48.017H103.825L104.956 49.148V52.346L103.825 53.477H102.772V53.646L104.956 55.804V57ZM112.489 55.869L111.358 57H108.147L107.029 55.869V49.148L108.147 48.017H111.358L112.489 49.148V50.084L111.202 51.384V49.148H108.316V55.869H111.202V54.92L112.489 53.633V55.869ZM119.934 57H118.66V56.038L117.698 57H115.449L114.318 55.869V48.017H115.605V55.869H118.66V48.017H119.934V57ZM127.813 49.148H123.393V51.384H126.37L127.475 52.502V55.869L126.37 57H123.224L122.106 55.869V54.972L123.393 53.737V55.869H126.188V52.502H123.224L122.106 51.384V49.148L123.224 48.017H126.682L127.813 49.148ZM132.527 52.502L131.422 53.633H128.692L129.797 52.502H132.527ZM139.586 57H138.312V53.633H135.257V57H133.97V49.148L135.101 48.017H139.586V57ZM139.118 49.148H135.257V53.477L136.232 52.502H138.312V49.954L139.118 49.148ZM147.933 49.148H143.292V55.869H146.334V52.502H144.241L145.372 51.384H147.621V57H146.334V56.038L145.372 57H143.123L142.005 55.869V49.148L143.123 48.017H146.802L147.933 49.148ZM155.559 55.869L154.428 57H149.943V50.253L151.074 49.148H149.787V48.017H153.466L154.597 49.148V50.747L153.804 51.54H154.597L155.559 52.502V55.869ZM153.31 51.54V49.148H151.23V52.502L152.179 51.54H153.31ZM154.272 55.869V52.502H151.23V55.869H154.272ZM163.25 57H161.976V53.633H158.921V57H157.634V49.148L158.765 48.017H163.25V57ZM162.782 49.148H158.921V53.477L159.896 52.502H161.976V49.954L162.782 49.148ZM171.129 49.148H166.709V51.384H169.686L170.791 52.502V55.869L169.686 57H166.54L165.422 55.869V54.972L166.709 53.737V55.869H169.504V52.502H166.54L165.422 51.384V49.148L166.54 48.017H169.998L171.129 49.148ZM178.574 57H177.3V56.038L176.338 57H174.089L172.958 55.869V48.017H174.245V55.869H177.3V48.017H178.574V57Z" fill="black"/>
</svg>
